{
  "accessors": [
    {
      "bufferView": 0,
      "componentType": 5126,
      "count": 265,
      "type": "VEC3"
    },
    {
      "bufferView": 1,
      "componentType": 5126,
      "count": 265,
      "type": "VEC2"
    },
    {
      "bufferView": 2,
      "componentType": 5126,
      "count": 265,
      "type": "VEC3"
    },
    {
      "bufferView": 3,
      "componentType": 5126,
      "count": 265,
      "max": [
        0.359081596,
        -0.100455672,
        0.150000006
      ],
      "min": [
        0.0609183908,
        -0.399544328,
        -0.150000006
      ],
      "type": "VEC3"
    },
    {
      "bufferView": 4,
      "componentType": 5126,
      "count": 20,
      "type": "VEC3"
    },
    {
      "bufferView": 5,
      "componentType": 5126,
      "count": 20,
      "max": [
        0.5,
        0.5,
        0.5
      ],
      "min": [
        -0.5,
        -0.5,
        -0.5
      ],
      "type": "VEC3"
    },
    {
      "bufferView": 6,
      "componentType": 5126,
      "count": 265,
      "type": "VEC2"
    },
    {
      "bufferView": 7,
      "componentType": 5126,
      "count": 265,
      "type": "VEC3"
    },
    {
      "bufferView": 8,
      "componentType": 5126,
      "count": 20,
      "type": "VEC2"
    },
    {
      "bufferView": 9,
      "componentType": 5126,
      "count": 265,
      "type": "VEC3"
    },
    {
      "bufferView": 10,
      "componentType": 5126,
      "count": 20,
      "type": "VEC3"
    },
    {
      "bufferView": 11,
      "componentType": 5126,
      "count": 265,
      "max": [
        -0.0609183908,
        -0.100455672,
        0.150000006
      ],
      "min": [
        -0.359081596,
        -0.399544328,
        -0.150000006
      ],
      "type": "VEC3"
    },
    {
      "bufferView": 12,
      "componentType": 5125,
      "count": 1500,
      "type": "SCALAR"
    },
    {
      "bufferView": 13,
      "componentType": 5125,
      "count": 1500,
      "type": "SCALAR"
    },
    {
      "bufferView": 14,
      "componentType": 5125,
      "count": 30,
      "type": "SCALAR"
    },
    {
      "bufferView": 15,
      "componentType": 5126,
      "count": 20,
      "type": "VEC4"
    },
    {
      "bufferView": 16,
      "componentType": 5126,
      "count": 265,
      "type": "VEC4"
    },
    {
      "bufferView": 17,
      "componentType": 5126,
      "count": 265,
      "type": "VEC4"
    }
  ],
  "asset": {
    "generator": "SideFX Houdini",
    "version": "2.0"
  },
  "bufferViews": [
    {
      "buffer": 0,
      "byteLength": 3180
    },
    {
      "buffer": 0,
      "byteLength": 3180,
      "byteOffset": 3180
    },
    {
      "buffer": 0,
      "byteLength": 3180,
      "byteOffset": 6360
    },
    {
      "buffer": 0,
      "byteLength": 3180,
      "byteOffset": 9540
    },
    {
      "buffer": 0,
      "byteLength": 240,
      "byteOffset": 12720
    },
    {
      "buffer": 0,
      "byteLength": 240,
      "byteOffset": 12960
    },
    {
      "buffer": 0,
      "byteLength": 3180,
      "byteOffset": 13200
    },
    {
      "buffer": 0,
      "byteLength": 3180,
      "byteOffset": 16380
    },
    {
      "buffer": 0,
      "byteLength": 240,
      "byteOffset": 19560
    },
    {
      "buffer": 0,
      "byteLength": 3180,
      "byteOffset": 19800
    },
    {
      "buffer": 0,
      "byteLength": 240,
      "byteOffset": 22980
    },
    {
      "buffer": 0,
      "byteLength": 3180,
      "byteOffset": 23220
    },
    {
      "buffer": 0,
      "byteLength": 6000,
      "byteOffset": 26400
    },
    {
      "buffer": 0,
      "byteLength": 6000,
      "byteOffset": 32400
    },
    {
      "buffer": 0,
      "byteLength": 120,
      "byteOffset": 38400
    },
    {
      "buffer": 0,
      "byteLength": 320,
      "byteOffset": 38520
    },
    {
      "buffer": 0,
      "byteLength": 4240,
      "byteOffset": 38840
    },
    {
      "buffer": 0,
      "byteLength": 4240,
      "byteOffset": 43080
    }
  ],
  "buffers": [
    {
      "byteLength": 47320,
      "uri": "cornell_v001_data.bin"
    }
  ],
  "meshes": [
    {
      "primitives": [
        {
          "attributes": {
            "COLOR_0": 4,
            "NORMAL": 10,
            "POSITION": 5,
            "TANGENT": 15,
            "TEXCOORD_0": 8
          },
          "indices": 14
        }
      ]
    },
    {
      "primitives": [
        {
          "attributes": {
            "COLOR_0": 0,
            "NORMAL": 7,
            "POSITION": 11,
            "TANGENT": 16,
            "TEXCOORD_0": 6
          },
          "indices": 13
        }
      ]
    },
    {
      "primitives": [
        {
          "attributes": {
            "COLOR_0": 9,
            "NORMAL": 2,
            "POSITION": 3,
            "TANGENT": 17,
            "TEXCOORD_0": 1
          },
          "indices": 12
        }
      ]
    }
  ],
  "nodes": [
    {
      "mesh": 0,
      "name": "cornell"
    },
    {
      "mesh": 1,
      "name": "sphere01"
    },
    {
      "mesh": 2,
      "name": "sphere02"
    }
  ],
  "scene": 0,
  "scenes": [
    {
      "name": "cornell",
      "nodes": [
        0,
        1,
        2
      ]
    }
  ]
}